<svg
        xmlns="http://www.w3.org/2000/svg"
        xmlns:xlink="http://www.w3.org/1999/xlink"
        width="29pt" height="21pt" viewBox="0 0 29 21">
    <path fill-rule="evenodd" fill="rgb(255, 255, 255)"
          d="M28.886,5.508 L26.314,10.247 C26.219,10.414 26.050,10.507 25.875,10.507 C25.787,10.507 25.699,10.484 25.618,10.434 C25.376,10.287 25.295,9.963 25.437,9.712 L27.558,5.768 L0.509,5.768 C0.228,5.768 0.001,5.532 0.001,5.241 C0.001,4.950 0.228,4.714 0.509,4.714 L27.557,4.714 L25.438,0.796 C25.295,0.545 25.376,0.222 25.617,0.074 C25.859,-0.074 26.171,0.009 26.314,0.260 L28.886,4.973 L28.881,4.981 C28.970,5.140 28.983,5.339 28.886,5.508 ZM0.080,15.502 L2.655,10.762 C2.750,10.596 2.920,10.503 3.094,10.503 C3.182,10.503 3.271,10.526 3.352,10.576 C3.594,10.723 3.676,11.047 3.533,11.297 L1.410,15.242 L28.487,15.242 C28.768,15.242 28.996,15.478 28.996,15.769 C28.996,16.060 28.768,16.296 28.487,16.296 L1.411,16.296 L3.532,20.214 C3.675,20.464 3.594,20.788 3.353,20.936 C3.111,21.084 2.798,21.001 2.655,20.750 L0.081,16.037 L0.085,16.029 C-0.003,15.870 -0.016,15.671 0.080,15.502 Z"/>
</svg>